<svg fill="currentColor" viewBox="0 0 21 12" xmlns="http://www.w3.org/2000/svg">
  <path
    d="m18.646 3.8105h-7.3555c-0.88-2.492-3.4831-4.1687-6.3734-3.5943-2.1214 0.42613-3.8445 2.1307-4.2891 4.2428-0.75963 3.5943 1.9639 6.7626 5.4286 6.7626 2.4178 0 4.4744-1.5471 5.234-3.7055h0.3243l1.195 1.195c0.3613 0.36128 0.9449 0.36128 1.3062 0l1.2043-1.195 1.195 1.195c0.3613 0.36128 0.9542 0.36128 1.3155 0l2.3993-2.4178c0.3613-0.36128 0.3613-0.95416-0.0093-1.3154l-0.9171-0.89859c-0.1853-0.17601-0.4169-0.26864-0.6577-0.26864zm-12.589 4.6319c-1.5285 0-2.7791-1.2506-2.7791-2.7791s1.2506-2.7791 2.7791-2.7791 2.7791 1.2506 2.7791 2.7791-1.2506 2.7791-2.7791 2.7791z" />
</svg>