<svg xmlns="http://www.w3.org/2000/svg" width="411" viewBox="0 0 308.25 84.75" height="113" version="1.0">
  <defs>
    <clipPath id="prefix__a">
      <path d="M.078 0h307.344v84.5H.078zm0 0" />
    </clipPath>
    <clipPath id="prefix__b">
      <path d="M2 14h76v48.21H2zm0 0" />
    </clipPath>
    <clipPath id="prefix__c">
      <path d="M24 12.855h10V62H24zm0 0" />
    </clipPath>
    <clipPath id="prefix__d">
      <path d="M46 12.855h10V62H46zm0 0" />
    </clipPath>
  </defs>
  <g clip-path="url(#prefix__b)">
    <path fill="#ff5757"
      d="M77.61 41.152v-5.949c-1.5-.058-2.641-.36-3.422-.96-.782-.602-1.262-1.442-1.563-2.583-.3-1.144-.422-3.066-.422-5.707 0-2.824-.121-4.867-.418-6.129-.3-1.262-.781-2.285-1.562-3.125-.782-.781-1.805-1.383-3.067-1.8-1.261-.364-3.004-.602-5.226-.602h-1.32v5.945c2.222 0 3.605.242 4.206.664.598.418.84 1.442.84 2.942 0 4.625.301 7.87.84 9.734.543 1.863 1.863 3.363 3.844 4.566-1.5.84-2.703 2.04-3.485 3.723-.78 1.621-1.199 5.168-1.199 10.633 0 1.324-.18 2.105-.543 2.523-.36.364-.781.66-1.199.844-.422.18-1.504.238-3.305.238v5.95h1.32c3.368 0 5.59-.422 6.79-1.204 1.203-.84 2.043-1.742 2.582-2.824.543-1.082.844-3.543.844-7.508 0-2.644.12-4.566.418-5.707.3-1.14.78-2.043 1.562-2.644.781-.602 1.922-.961 3.426-1.02zm-75.094 0c1.5.059 2.644.418 3.425 1.02.778.601 1.262 1.441 1.559 2.582.3 1.144.422 3.066.422 5.77 0 3.843.3 6.367.84 7.507.543 1.14 1.504 2.106 2.765 2.883 1.262.781 3.485 1.145 6.668 1.145h1.32v-5.95c-2.1 0-3.421-.238-4.081-.718-.664-.485-.965-1.446-.965-2.887 0-4.746-.297-8.05-.899-9.91-.601-1.864-1.863-3.305-3.726-4.387 2.043-1.203 3.304-2.762 3.847-4.687.54-1.922.778-5.106.778-9.61 0-1.562.3-2.523.902-2.945.602-.422 1.984-.66 4.145-.66v-5.95h-1.32c-2.884 0-5.048.364-6.489 1.082-1.441.723-2.465 1.805-2.945 3.247-.54 1.441-.782 3.843-.782 7.27 0 2.64-.117 4.503-.418 5.644-.3 1.14-.78 2.043-1.562 2.644-.781.602-1.922.961-3.426 1.02v5.949zm0 0" />
  </g>
  <g clip-path="url(#prefix__c)">
    <path fill="#ffbd59"
      d="M26.906 59.113h4.688a2.345 2.345 0 012.34 2.344V15.199a2.345 2.345 0 00-2.34-2.344h-4.688a2.345 2.345 0 00-2.343 2.344v46.258a2.348 2.348 0 012.343-2.344zm0 0"
      fill-rule="evenodd" />
  </g>
  <path fill="#f6f6e9"
    d="M37.96 58.512h4.685a2.348 2.348 0 012.343 2.343V25.891a2.345 2.345 0 00-2.343-2.344H37.96a2.348 2.348 0 00-2.344 2.344v34.964c0 1.262 1.024-2.343 2.344-2.343zm0 0"
    fill-rule="evenodd" />
  <g clip-path="url(#prefix__d)">
    <path fill="#ffbd59"
      d="M48.594 59.113h4.687a2.345 2.345 0 012.34 2.344V15.199a2.345 2.345 0 00-2.34-2.344h-4.687A2.345 2.345 0 0046.25 15.2v46.258a2.348 2.348 0 012.344-2.344zm0 0"
      fill-rule="evenodd" />
  </g>
  <path
    d="M96.897 49.657c-2.868-2.79-4.297-6.32-4.297-10.594 0-4.281 1.43-7.812 4.297-10.594 2.875-2.78 6.379-4.171 10.515-4.171 3.207 0 6.055.851 8.547 2.546 2.5 1.7 4.242 4.059 5.234 7.079h-8.39c-1.094-2.114-2.852-3.172-5.266-3.172-2.418 0-4.32.758-5.703 2.265-1.387 1.512-2.078 3.528-2.078 6.047 0 2.524.691 4.54 2.078 6.047 1.383 1.512 3.242 2.266 5.578 2.266 1.676 0 3.04-.414 4.094-1.25 1.05-.844 1.754-1.961 2.11-3.36h-8.141v-5.343h15.718v5.343c-.523 2.625-1.964 5.078-4.328 7.36-1.125 1.093-2.515 1.984-4.172 2.672a13.642 13.642 0 01-5.28 1.03c-4.137 0-7.641-1.39-10.516-4.171zm0 0M134.428 53.86c-3.344 0-6.09-1.07-8.234-3.219-2.137-2.156-3.203-5.015-3.203-8.578 0-3.562 1.062-6.394 3.187-8.5 2.125-2.113 4.875-3.172 8.25-3.172s6.172 1.043 8.39 3.125c2.22 2.086 3.329 4.977 3.329 8.672 0 .793-.055 1.531-.156 2.219h-15.797c.133 1.012.586 1.84 1.36 2.484.769.649 1.597.97 2.484.97.894 0 1.562-.087 2-.267.437-.175.753-.351.953-.53.207-.177.476-.473.812-.891h7.61c-.657 2.304-1.977 4.164-3.954 5.578-1.968 1.406-4.312 2.11-7.03 2.11zM138.834 40c-.117-1.062-.586-1.925-1.406-2.593-.824-.676-1.797-1.016-2.922-1.016-1.117 0-2.058.34-2.828 1.016-.773.668-1.25 1.531-1.437 2.594zm0 0M148.078 37.548c0-2.032.863-3.727 2.594-5.094 1.726-1.375 4.066-2.063 7.016-2.063 2.945 0 5.32.672 7.125 2.016 1.812 1.336 2.773 3.168 2.89 5.5H160.5c-.086-.79-.36-1.328-.828-1.61-.461-.288-1.156-.437-2.094-.437-1.836 0-2.75.563-2.75 1.688 0 1.011 1.125 1.71 3.375 2.093 2.27.387 4.336.977 6.203 1.766.957.387 1.758 1.027 2.407 1.922.644.887.968 1.976.968 3.265 0 2.137-.922 3.883-2.765 5.235-1.836 1.355-4.153 2.031-6.953 2.031-2.793 0-5.122-.633-6.985-1.906-1.855-1.27-2.867-3.156-3.031-5.656h7.187c.196 1.398 1.188 2.093 2.97 2.093.82 0 1.5-.187 2.03-.562.532-.383.797-.88.797-1.485 0-.601-.449-1.082-1.343-1.437-.887-.363-1.961-.664-3.22-.906a46.93 46.93 0 01-3.812-.922c-1.273-.375-2.355-1.02-3.25-1.938-.886-.914-1.328-2.113-1.328-3.593zm0 0M181.187 47.61h2.515v5.969h-3.578c-2.586 0-4.586-.567-6-1.703-1.406-1.133-2.11-3.086-2.11-5.86V36.47h-2.14v-5.843h2.14v-5.594h7.032v5.594h4.61v5.843h-4.61v9.547c0 1.063.71 1.594 2.14 1.594zm0 0M204.96 24.626v5.343h-10.454v6.22h9.22v5.343h-9.22v6.703h10.453v5.344h-17.484V24.626zm0 0M223.954 46.298c1.02-.989 1.532-2.383 1.532-4.188 0-1.812-.512-3.203-1.532-4.172-1.011-.976-2.18-1.469-3.5-1.469-1.312 0-2.48.497-3.5 1.485-1.011.992-1.515 2.39-1.515 4.203 0 1.805.504 3.195 1.515 4.172 1.02.969 2.188 1.453 3.5 1.453 1.32 0 2.489-.492 3.5-1.484zm-12.625 4.28c-2.03-2.194-3.046-5.007-3.046-8.437 0-3.425 1.015-6.238 3.046-8.437 2.032-2.207 4.504-3.313 7.422-3.313 2.926 0 5.172 1.078 6.735 3.235V23.14h7.031V53.58h-7.031V50.25c-1.711 2.406-3.992 3.61-6.844 3.61-2.844 0-5.281-1.095-7.313-3.282zm0 0M253.24 30.626h7.032v22.953h-7.031v-3.375c-1.461 2.418-3.778 3.625-6.954 3.625-2.636 0-4.773-.875-6.406-2.625-1.625-1.758-2.437-4.149-2.437-7.172V30.626h7v12.468c0 1.48.39 2.625 1.172 3.438.78.805 1.851 1.203 3.218 1.203 1.375 0 2.453-.398 3.235-1.203.78-.813 1.172-1.957 1.172-3.438zm0 0"
    fill="#f6f6e9" />
</svg>