<svg xmlns="http://www.w3.org/2000/svg" width="180" viewBox="0 0 281.25 84" height="50" version="1.0">
  <defs>
    <clipPath id="prefix__a">
      <path d="M2 16h76v48.398H2zm0 0" />
    </clipPath>
    <clipPath id="prefix__b">
      <path d="M24 15.031h10V64H24zm0 0" />
    </clipPath>
    <clipPath id="prefix__c">
      <path d="M46 15.031h10V64H46zm0 0" />
    </clipPath>
  </defs>
  <g clip-path="url(#prefix__a)">
    <path fill="#120200"
      d="M77.555 43.336v-5.95c-1.504-.062-2.645-.363-3.426-.964-.781-.598-1.262-1.442-1.563-2.582-.3-1.14-.421-3.067-.421-5.711 0-2.824-.122-4.867-.422-6.129-.301-1.262-.782-2.281-1.563-3.125-.781-.781-1.8-1.383-3.062-1.8-1.262-.364-3.004-.602-5.23-.602h-1.321v5.949c2.223 0 3.605.238 4.207.66.601.422.84 1.441.84 2.945 0 4.63.3 7.871.844 9.735.539 1.863 1.863 3.367 3.843 4.566-1.5.844-2.703 2.043-3.484 3.727-.781 1.625-1.203 5.168-1.203 10.636 0 1.325-.18 2.106-.54 2.524-.363.363-.78.66-1.202.844-.422.18-1.5.238-3.305.238v5.95h1.32c3.367 0 5.59-.423 6.793-1.204 1.2-.84 2.043-1.742 2.582-2.824.543-1.078.844-3.543.844-7.512 0-2.64.117-4.566.418-5.707.3-1.14.781-2.043 1.562-2.645.782-.601 1.926-.96 3.426-1.02zm-75.118 0c1.5.059 2.645.418 3.426 1.02.782.601 1.262 1.44 1.563 2.585.3 1.141.418 3.063.418 5.766 0 3.848.3 6.371.843 7.512.54 1.144 1.5 2.105 2.762 2.886 1.262.782 3.489 1.141 6.672 1.141h1.32v-5.95c-2.101 0-3.421-.237-4.086-.718-.66-.484-.96-1.445-.96-2.887 0-4.746-.301-8.05-.903-9.914-.597-1.863-1.86-3.304-3.722-4.386 2.043-1.203 3.304-2.766 3.843-4.688.543-1.922.782-5.11.782-9.617 0-1.563.3-2.523.902-2.941.601-.422 1.984-.665 4.144-.665v-5.949h-1.32c-2.883 0-5.047.364-6.488 1.082-1.445.723-2.465 1.805-2.945 3.246-.543 1.442-.782 3.848-.782 7.27 0 2.644-.12 4.508-.422 5.652-.3 1.14-.78 2.043-1.562 2.64-.781.602-1.922.966-3.426 1.024v5.95zm0 0" />
  </g>
  <g clip-path="url(#prefix__b)">
    <path fill="#ffbd59"
      d="M26.836 61.3h4.687a2.348 2.348 0 012.344 2.345v-46.27a2.348 2.348 0 00-2.344-2.344h-4.687a2.345 2.345 0 00-2.344 2.344v46.27a2.345 2.345 0 012.344-2.344zm0 0"
      fill-rule="evenodd" />
  </g>
  <path fill="#ff5757"
    d="M37.89 60.7h4.688a2.348 2.348 0 012.344 2.343V28.07a2.345 2.345 0 00-2.344-2.343h-4.687a2.348 2.348 0 00-2.344 2.343v34.973c0 1.266 1.023-2.344 2.344-2.344zm0 0"
    fill-rule="evenodd" />
  <g clip-path="url(#prefix__c)">
    <path fill="#ffbd59"
      d="M48.527 61.3h4.688a2.348 2.348 0 012.344 2.345v-46.27a2.345 2.345 0 00-2.344-2.344h-4.688a2.345 2.345 0 00-2.343 2.344v46.27a2.348 2.348 0 012.343-2.344zm0 0"
      fill-rule="evenodd" />
  </g>
  <path
    d="M96.855 49.559c-2.867-2.79-4.297-6.32-4.297-10.594 0-4.281 1.43-7.812 4.297-10.594 2.875-2.78 6.379-4.172 10.516-4.172 3.207 0 6.054.852 8.547 2.547 2.5 1.7 4.242 4.059 5.234 7.078h-8.39c-1.094-2.113-2.852-3.171-5.266-3.171-2.418 0-4.32.757-5.703 2.265-1.387 1.512-2.079 3.528-2.079 6.047 0 2.524.692 4.54 2.079 6.047 1.382 1.512 3.242 2.266 5.578 2.266 1.675 0 3.039-.414 4.093-1.25 1.051-.844 1.754-1.961 2.11-3.36h-8.14v-5.344h15.718v5.344c-.524 2.625-1.965 5.078-4.328 7.36-1.125 1.093-2.516 1.984-4.172 2.671a13.642 13.642 0 01-5.281 1.032c-4.137 0-7.64-1.39-10.516-4.172zm0 0M134.39 53.762c-3.344 0-6.09-1.07-8.235-3.219-2.137-2.156-3.203-5.015-3.203-8.578 0-3.562 1.062-6.394 3.187-8.5 2.125-2.113 4.875-3.172 8.25-3.172s6.172 1.043 8.391 3.125c2.219 2.086 3.328 4.977 3.328 8.672 0 .793-.054 1.531-.156 2.219h-15.797c.133 1.012.586 1.84 1.36 2.484.769.649 1.597.969 2.484.969.894 0 1.562-.086 2-.266.437-.175.754-.351.953-.53.207-.177.477-.474.812-.892h7.61c-.656 2.305-1.977 4.165-3.953 5.579-1.97 1.406-4.313 2.109-7.032 2.109zm4.406-13.86c-.117-1.062-.586-1.925-1.407-2.593-.824-.676-1.796-1.016-2.921-1.016-1.118 0-2.059.34-2.829 1.016-.773.668-1.25 1.531-1.437 2.594zm0 0M148.042 37.45c0-2.032.863-3.727 2.593-5.094 1.727-1.375 4.067-2.063 7.016-2.063 2.945 0 5.32.672 7.125 2.016 1.813 1.336 2.774 3.168 2.89 5.5h-7.202c-.086-.79-.36-1.328-.829-1.61-.46-.289-1.156-.437-2.093-.437-1.836 0-2.75.562-2.75 1.687 0 1.012 1.125 1.711 3.375 2.094 2.27.387 4.336.977 6.203 1.766.957.387 1.758 1.027 2.406 1.922.645.886.969 1.976.969 3.265 0 2.137-.922 3.883-2.766 5.235-1.836 1.355-4.152 2.031-6.953 2.031-2.793 0-5.121-.633-6.984-1.906-1.856-1.27-2.867-3.157-3.032-5.657h7.188c.195 1.399 1.187 2.094 2.969 2.094.82 0 1.5-.187 2.031-.562.531-.383.797-.88.797-1.485 0-.601-.45-1.082-1.344-1.437-.887-.363-1.96-.664-3.219-.906a46.93 46.93 0 01-3.812-.922c-1.274-.375-2.356-1.02-3.25-1.938-.887-.914-1.328-2.113-1.328-3.594zm0 0M181.152 47.512h2.516v5.969h-3.578c-2.586 0-4.586-.567-6-1.703-1.407-1.133-2.11-3.086-2.11-5.86v-9.547h-2.14v-5.843h2.14v-5.594h7.031v5.594h4.61v5.843h-4.61v9.547c0 1.063.711 1.594 2.141 1.594zm0 0M204.926 24.528v5.343h-10.453v6.22h9.219v5.343h-9.219v6.703h10.453v5.344h-17.484V24.528zm0 0M223.923 46.2c1.02-.989 1.532-2.383 1.532-4.188 0-1.813-.512-3.203-1.532-4.172-1.011-.976-2.18-1.469-3.5-1.469-1.312 0-2.48.496-3.5 1.485-1.011.992-1.515 2.39-1.515 4.203 0 1.805.504 3.195 1.515 4.172 1.02.968 2.188 1.453 3.5 1.453 1.32 0 2.489-.492 3.5-1.485zm-12.625 4.28c-2.03-2.195-3.046-5.007-3.046-8.437 0-3.426 1.015-6.238 3.046-8.437 2.032-2.207 4.504-3.313 7.422-3.313 2.926 0 5.172 1.078 6.735 3.235V23.043h7.03v30.438h-7.03v-3.328c-1.711 2.406-3.993 3.609-6.844 3.609-2.844 0-5.281-1.094-7.313-3.281zm0 0M253.212 30.528h7.031V53.48h-7.03v-3.375c-1.462 2.418-3.778 3.625-6.954 3.625-2.637 0-4.773-.875-6.406-2.625-1.625-1.758-2.438-4.149-2.438-7.172V30.528h7v12.468c0 1.48.39 2.625 1.172 3.438.781.805 1.852 1.203 3.219 1.203 1.375 0 2.453-.398 3.234-1.203.781-.813 1.172-1.957 1.172-3.438zm0 0"
    fill="#120200" />
</svg>