<svg xmlns="http://www.w3.org/2000/svg" width="299" viewBox="0 0 224.25 156" height="208" version="1.0">
  <defs>
    <clipPath id="prefix__a">
      <path d="M0 .262h223.504v155.476H0zm0 0" />
    </clipPath>
    <clipPath id="prefix__b">
      <path d="M46 2h131v83.477H46zm0 0" />
    </clipPath>
    <clipPath id="prefix__c">
      <path d="M84 .262h18V85H84zm0 0" />
    </clipPath>
    <clipPath id="prefix__d">
      <path d="M122 .262h17V85h-17zm0 0" />
    </clipPath>
  </defs>
  <g clip-path="url(#prefix__b)">
    <path fill="#ff5757"
      d="M176.676 49.285V38.98c-2.602-.101-4.578-.625-5.934-1.664-1.351-1.043-2.183-2.5-2.703-4.476-.523-1.977-.73-5.309-.73-9.887 0-4.894-.207-8.433-.727-10.617-.523-2.188-1.355-3.957-2.707-5.414-1.355-1.352-3.125-2.395-5.309-3.121-2.187-.625-5.207-1.043-9.058-1.043h-2.29v10.305c3.852 0 6.247.417 7.29 1.144 1.039.73 1.457 2.5 1.457 5.102 0 8.015.52 13.636 1.457 16.863.933 3.226 3.226 5.828 6.66 7.91-2.602 1.457-4.684 3.54-6.035 6.453-1.356 2.813-2.082 8.953-2.082 18.426 0 2.289-.313 3.64-.938 4.371-.625.625-1.355 1.145-2.082 1.457-.73.313-2.601.418-5.726.418v10.305h2.289c5.832 0 9.683-.73 11.765-2.082 2.082-1.457 3.54-3.02 4.473-4.895.938-1.87 1.457-6.14 1.457-13.012 0-4.578.211-7.91.73-9.886.52-1.977 1.352-3.54 2.708-4.582 1.351-1.04 3.332-1.664 5.933-1.77zm-130.113 0c2.605.106 4.582.73 5.933 1.77 1.356 1.043 2.188 2.5 2.707 4.476.52 1.977.73 5.309.73 9.992 0 6.665.52 11.036 1.458 13.012.937 1.98 2.601 3.645 4.789 4.996 2.183 1.356 6.035 1.98 11.55 1.98h2.293V75.208c-3.644 0-5.933-.418-7.078-1.25-1.148-.832-1.668-2.5-1.668-4.996 0-8.223-.52-13.95-1.558-17.176-1.043-3.226-3.23-5.726-6.457-7.597 3.539-2.083 5.726-4.79 6.664-8.122.937-3.332 1.351-8.847 1.351-16.652 0-2.707.52-4.375 1.563-5.102 1.039-.73 3.433-1.144 7.183-1.144V2.863H73.73c-4.996 0-8.742.625-11.242 1.871-2.496 1.25-4.265 3.125-5.097 5.621-.938 2.5-1.356 6.665-1.356 12.598 0 4.578-.207 7.805-.726 9.781-.52 1.98-1.356 3.54-2.707 4.582-1.352 1.04-3.332 1.664-5.934 1.77V49.39zm0 0" />
  </g>
  <g clip-path="url(#prefix__c)">
    <path fill="#ffce6d"
      d="M88.824 80.41h8.121c2.184 0 4.059 1.77 4.059 4.059V4.32c0-2.187-1.77-4.058-4.059-4.058h-8.12c-2.184 0-4.06 1.77-4.06 4.058V84.47c0-2.184 1.77-4.059 4.06-4.059zm0 0"
      fill-rule="evenodd" />
  </g>
  <path fill="#f6f6e9"
    d="M107.977 79.367h8.12c2.184 0 4.06 1.77 4.06 4.063V22.848c0-2.188-1.77-4.059-4.06-4.059h-8.12c-2.184 0-4.059 1.77-4.059 4.059V83.43c0 2.183 1.77-4.063 4.059-4.063zm0 0"
    fill-rule="evenodd" />
  <g clip-path="url(#prefix__d)">
    <path fill="#ffce6d"
      d="M126.402 80.41h8.118c2.187 0 4.062 1.77 4.062 4.059V4.32c0-2.187-1.77-4.058-4.062-4.058h-8.118c-2.187 0-4.058 1.77-4.058 4.058V84.47c0-2.184 1.77-4.059 4.058-4.059zm0 0"
      fill-rule="evenodd" />
  </g>
  <path
    d="M42.302 126.262c-2.469-2.407-3.703-5.453-3.703-9.14 0-3.688 1.234-6.727 3.703-9.126 2.477-2.406 5.5-3.61 9.063-3.61 2.77 0 5.226.735 7.375 2.204 2.156 1.46 3.66 3.492 4.515 6.094h-7.234c-.95-1.82-2.465-2.735-4.547-2.735-2.086 0-3.727.653-4.922 1.953-1.187 1.305-1.781 3.043-1.781 5.22 0 2.179.594 3.917 1.781 5.218 1.195 1.293 2.8 1.937 4.813 1.937 1.445 0 2.625-.359 3.53-1.078.915-.719 1.524-1.68 1.829-2.89h-7.016v-4.61h13.547v4.61c-.449 2.273-1.695 4.386-3.734 6.343-.969.95-2.168 1.72-3.594 2.313-1.43.594-2.95.89-4.562.89-3.563 0-6.586-1.195-9.063-3.593zm0 0M74.665 129.887c-2.887 0-5.25-.926-7.094-2.782-1.844-1.863-2.765-4.332-2.765-7.406 0-3.07.914-5.515 2.75-7.328 1.832-1.82 4.203-2.734 7.109-2.734 2.906 0 5.316.902 7.234 2.703 1.914 1.793 2.875 4.281 2.875 7.469 0 .687-.047 1.328-.14 1.921H71.009c.125.875.515 1.59 1.172 2.141.664.555 1.378.828 2.14.828.77 0 1.344-.07 1.719-.219.383-.156.664-.312.844-.468.175-.157.406-.41.687-.766h6.563c-.563 1.992-1.7 3.594-3.407 4.813-1.699 1.218-3.718 1.828-6.062 1.828zm3.797-11.953c-.094-.926-.496-1.676-1.203-2.25-.711-.582-1.547-.875-2.516-.875-.969 0-1.79.293-2.453.875-.656.574-1.07 1.324-1.234 2.25zm0 0M86.44 115.809c0-1.75.743-3.211 2.235-4.391 1.488-1.188 3.504-1.781 6.047-1.781 2.539 0 4.593.578 6.156 1.734 1.562 1.156 2.39 2.742 2.484 4.75H97.16c-.074-.687-.312-1.148-.719-1.39-.398-.25-1-.376-1.812-.376-1.586 0-2.375.485-2.375 1.454 0 .875.969 1.476 2.906 1.796 1.969.336 3.754.844 5.36 1.532.832.336 1.523.886 2.078 1.656.55.762.828 1.7.828 2.812 0 1.844-.793 3.356-2.375 4.532-1.586 1.168-3.586 1.75-6 1.75-2.406 0-4.418-.547-6.031-1.64-1.606-1.102-2.477-2.735-2.61-4.892h6.203c.164 1.211 1.016 1.813 2.547 1.813.719 0 1.305-.164 1.766-.5.457-.332.687-.754.687-1.266 0-.52-.386-.93-1.156-1.234-.773-.313-1.7-.57-2.781-.781a38.637 38.637 0 01-3.281-.813 6.294 6.294 0 01-2.797-1.672c-.774-.789-1.157-1.82-1.157-3.093zm0 0M114.985 124.496h2.172v5.14h-3.094c-2.218 0-3.937-.488-5.156-1.468-1.219-.977-1.828-2.664-1.828-5.063v-8.218h-1.844v-5.047h1.844v-4.813h6.063v4.813h3.968v5.047h-3.968v8.218c0 .93.613 1.391 1.843 1.391zm0 0M135.487 104.668v4.61h-9.015v5.359h7.953v4.61h-7.953v5.78h9.015v4.61H120.41v-24.969zm0 0M151.87 123.355c.875-.851 1.312-2.054 1.312-3.609 0-1.562-.437-2.758-1.312-3.594-.875-.843-1.883-1.265-3.016-1.265-1.137 0-2.14.43-3.016 1.281-.875.844-1.312 2.047-1.312 3.61 0 1.562.437 2.765 1.312 3.609.875.836 1.88 1.25 3.016 1.25 1.133 0 2.14-.426 3.016-1.282zm-10.891 3.704c-1.75-1.895-2.625-4.32-2.625-7.282 0-2.957.875-5.382 2.625-7.28 1.75-1.907 3.883-2.86 6.406-2.86 2.52 0 4.453.933 5.797 2.797v-9.047h6.063v26.25h-6.063v-2.875c-1.469 2.086-3.433 3.125-5.89 3.125-2.461 0-4.563-.942-6.313-2.828zm0 0M177.126 109.84h6.063v19.797h-6.063v-2.907c-1.261 2.086-3.261 3.125-6 3.125-2.273 0-4.11-.753-5.515-2.265-1.407-1.52-2.11-3.582-2.11-6.188V109.84h6.032v10.75c0 1.281.332 2.273 1 2.969.675.699 1.601 1.046 2.78 1.046 1.188 0 2.118-.347 2.798-1.046.675-.696 1.015-1.688 1.015-2.97zm0 0"
    fill="#f6f6e9" />
</svg>