<svg fill="currentColor" viewBox="0 0 20 15" xmlns="http://www.w3.org/2000/svg">
  <path
    d="m10 0.38867c-4.5454 0-8.4273 2.8273-10 6.8182 1.5727 3.991 5.4546 6.8182 10 6.8182 4.5455 0 8.4273-2.8272 10-6.8182-1.5727-3.9909-5.4545-6.8182-10-6.8182zm0 11.364c-2.5091 0-4.5454-2.0364-4.5454-4.5454s2.0364-4.5454 4.5454-4.5454c2.5091 0 4.5455 2.0364 4.5455 4.5454s-2.0364 4.5454-4.5455 4.5454zm0-7.2727c-1.5091 0-2.7273 1.2182-2.7273 2.7273s1.2182 2.7273 2.7273 2.7273c1.5091 0 2.7273-1.2182 2.7273-2.7273s-1.2182-2.7273-2.7273-2.7273z" />
</svg>