<svg fill="currentColor" viewBox="0 0 21 18" xmlns="http://www.w3.org/2000/svg">
  <path
    d="m10.5 4.1598c2.5091 0 4.5455 2.0364 4.5455 4.5454 0 0.46364-0.091 0.90909-0.2182 1.3273l2.7818 2.7818c1.2636-1.1182 2.2636-2.5182 2.8909-4.1182-1.5727-3.9818-5.4545-6.8091-10-6.8091-1.1546 0-2.2636 0.18182-3.3091 0.51818l1.9727 1.9727c0.42727-0.12728 0.87276-0.21818 1.3364-0.21818zm-7.8-3.6818-1.2818 1.2909 2.4364 2.4364c-1.4818 1.1636-2.6546 2.7091-3.3546 4.5 1.5727 3.9909 5.4546 6.8182 10 6.8182 1.3818 0 2.7-0.2727 3.9182-0.7455l3.1182 3.1182 1.2818-1.2818-16.118-16.136zm7.8 12.773c-2.5091 0-4.5454-2.0364-4.5454-4.5455 0-0.7 0.16363-1.3636 0.44545-1.9454l1.4273 1.4273c-0.02727 0.16364-0.05454 0.33636-0.05454 0.51818 0 1.5091 1.2182 2.7273 2.7273 2.7273 0.1818 0 0.3455-0.0273 0.5182-0.0637l1.4273 1.4273c-0.591 0.2909-1.2455 0.4546-1.9455 0.4546zm2.7-4.8455c-0.1364-1.2727-1.1364-2.2636-2.4-2.4l2.4 2.4z" />
</svg>